<svg height="499pt" viewBox="0 -3 499.6 499" width="499pt" xmlns="http://www.w3.org/2000/svg"><path d="m484.601562 160.898438-35.101562-29.796876-8.398438-45.300781-43.101562-16.101562-23.300781-39.699219-46-.398438-35.5-29.300781-43.398438 15.5-43.402343-15.5-35.5 29.300781-46 .398438-23.296876 39.699219-43.101562 16.101562-8.398438 45.300781-35.101562 29.796876 7.699219 45.402343-22.699219 40 22.699219 40.097657-7.699219 45.402343 35.101562 29.800781 8.398438 45.296876 43.101562 16.101562 23.296876 39.699219 46 .402343 35.5 29.296876 43.402343-15.5 43.398438 15.402343 35.5-29.300781 46-.398438 23.300781-39.703124 43.101562-16.097657 8.398438-45.300781 35.101562-29.800781-7.703124-45.398438 22.703124-40.101562-22.703124-40.097657zm-234.800781 274.101562c-104.199219 0-188.699219-84.5-188.699219-188.699219s84.5-188.699219 188.699219-188.699219 188.699219 84.5 188.699219 188.699219-84.5 188.699219-188.699219 188.699219zm0 0" fill="#1a6fb0"/><path d="m468.800781 166.601562-32.699219-27.800781-7.800781-42.199219-40.199219-15-21.703124-37-42.898438-.402343-33.101562-27.300781-40.597657 14.402343-40.5-14.402343-33.101562 27.300781-42.898438.300781-21.699219 37-40.203124 15-7.796876 42.199219-32.800781 27.902343 7.199219 42.296876-21.199219 37.402343 21.199219 37.398438-7.199219 42.300781 32.699219 27.800781 7.800781 42.199219 40.199219 15 21.699219 37 42.902343.398438 33.097657 27.300781 40.601562-14.398438 40.5 14.398438 33.097657-27.300781 42.902343-.296876 21.699219-37 40.199219-15 7.800781-42.203124 32.699219-27.796876-7.199219-42.300781 21.300781-37.5-21.199219-37.402343zm-219 255.699219c-97.199219 0-176-78.800781-176-176s78.800781-176 176-176 176 78.800781 176 176-78.800781 176-176 176zm0 0" fill="#78b9eb"/><path d="m278.898438 206.300781-29.097657-89.402343-29.101562 89.402343h-94l76.101562 55.300781-29.101562 89.398438 76.101562-55.300781 76.097657 55.300781-29.097657-89.398438 76.097657-55.300781zm0 0" fill="#78b9eb"/><g fill="#1a6fb0"><path d="m249.800781 62.300781c-101.601562 0-184 82.398438-184 184 0 101.597657 82.398438 184 184 184 101.597657 0 184-82.402343 184-184-.101562-101.601562-82.402343-183.902343-184-184zm0 352c-92.800781 0-168-75.199219-168-168s75.199219-168 168-168 168 75.199219 168 168c-.101562 92.699219-75.300781 167.898438-168 168zm0 0"/><path d="m257.398438 114.398438c-1.398438-4.199219-5.898438-6.5-10.097657-5.097657-2.402343.800781-4.300781 2.699219-5.101562 5.097657l-27.300781 83.902343h-88.199219c-4.398438 0-8 3.597657-8 8 0 2.597657 1.199219 5 3.300781 6.5l71.398438 51.898438-27.296876 83.902343c-1.402343 4.199219.898438 8.699219 5.097657 10.097657 2.402343.800781 5.101562.402343 7.199219-1.097657l71.402343-51.902343 71.398438 51.902343c3.601562 2.597657 8.601562 1.796876 11.199219-1.800781 1.5-2.101562 1.902343-4.699219 1.101562-7.199219l-27.300781-83.902343 71.402343-51.898438c3.597657-2.601562 4.398438-7.601562 1.796876-11.199219-1.5-2.101562-3.898438-3.300781-6.5-3.300781h-88.199219zm34.703124 140.703124c-2.800781 2-4 5.597657-2.902343 8.898438l21.402343 66-56.101562-40.699219c-2.800781-2-6.601562-2-9.398438 0l-56.203124 40.800781 21.402343-66c1.097657-3.300781-.101562-6.902343-2.902343-8.902343l-56.097657-40.898438h69.398438c3.5 0 6.5-2.199219 7.601562-5.5l21.5-66 21.5 66c1.097657 3.300781 4.097657 5.5 7.597657 5.5h69.402343zm0 0"/></g></svg>